<svg viewBox="0 0 28 28" xmlns="http://www.w3.org/2000/svg"><path d="M10.5 11a1.5 1.5 0 1 0 0-3 1.5 1.5 0 0 0 0 3zm7 0a1.5 1.5 0 1 0 0-3 1.5 1.5 0 0 0 0 3zm5.367 6.872l-2.028-3.407a.988.988 0 0 0-1.338-.345.95.95 0 0 0-.35 1.312l.24.405a7.548 7.548 0 0 1-5.395 2.245 7.55 7.55 0 0 1-5.39-2.24l.242-.41a.95.95 0 0 0-.352-1.312.988.988 0 0 0-1.338.345l-2.027 3.407a.95.95 0 0 0 .352 1.312.99.99 0 0 0 1.337-.345l.77-1.292A9.524 9.524 0 0 0 13.996 20a9.52 9.52 0 0 0 6.41-2.456l.77 1.295a.99.99 0 0 0 1.337.345.95.95 0 0 0 .353-1.313z" fill="#FFF" fill-rule="evenodd"/></svg>
